<svg width="1920" height="1080" viewBox="0 0 1920 1080" xmlns="http://www.w3.org/2000/svg"><rect width="1920" height="1080" fill="#474e68"/><path d="M 0,1080 C 0,1080 0,216 0,216 C 59.79211715879353,210.95877501387824 119.58423431758706,205.91755002775648 179,211 C 238.41576568241294,216.08244997224352 297.4551798884453,231.2885749028523 388,240 C 478.5448201115547,248.7114250971477 600.5950461286316,250.9281503608343 673,255 C 745.4049538713684,259.0718496391657 768.1646355970287,264.9988236538106 826,265 C 883.8353644029713,265.0011763461894 976.7464114832537,259.0765550239235 1060,273 C 1143.2535885167463,286.9234449760765 1216.8497184699568,320.6949562504957 1295,289 C 1373.1502815300432,257.3050437495043 1455.854714636919,160.14361997409395 1525,154 C 1594.145285363081,147.85638002590605 1649.7314229823678,232.73056385312856 1728,272 C 1806.2685770176322,311.26943614687144 1907.2195934336094,304.9341246133918 1943,288 C 1978.7804065663906,271.0658753866082 1949.3902032831952,243.5329376933041 1920,216 C 1920,216 1920,1080 1920,1080 Z" fill="#282a3a" opacity="0.12"/><path d="M 0,1080 C 0,1080 0,432 0,432 C 68.47008908509343,395.7821380422427 136.94017817018687,359.5642760844854 220,355 C 303.05982182981313,350.4357239155146 400.7093764043459,377.525033704301 461,403 C 521.2906235956541,428.474966295699 544.2223162124296,452.3355890983108 604,451 C 663.7776837875704,449.6644109016892 760.4013587459357,423.13260990245584 841,403 C 921.5986412540643,382.86739009754416 986.1722488038276,369.133971291866 1063,366 C 1139.8277511961724,362.866028708134 1228.9096460387534,370.3315049300801 1305,389 C 1381.0903539612466,407.6684950699199 1444.189167041159,437.5400089878136 1504,440 C 1563.810832958841,442.4599910121864 1620.333685796611,417.50845911866554 1706,430 C 1791.666314203389,442.49154088133446 1906.476089772397,492.42615453752416 1947,499 C 1987.523910227603,505.57384546247584 1953.7619551138014,468.78692273123795 1920,432 C 1920,432 1920,1080 1920,1080 Z" fill="#282a3a" opacity="0.24"/><path d="M 0,1080 C 0,1080 0,648 0,648 C 84.23430436966348,611.8854185942002 168.46860873932695,575.7708371884004 228,572 C 287.53139126067305,568.2291628115996 322.35986941235564,596.8020698405986 389,591 C 455.64013058764436,585.1979301594014 554.0919136112506,545.0208834492056 644,576 C 733.9080863887494,606.9791165507944 815.272476142642,709.114396362579 890,722 C 964.727523857358,734.885603637421 1032.818181818182,658.5215311004785 1100,651 C 1167.181818181818,643.4784688995215 1233.454796584631,704.7994792355071 1299,713 C 1364.545203415369,721.2005207644929 1429.3626318432948,676.280551957493 1486,635 C 1542.6373681567052,593.719448042507 1591.0946760421896,556.0783129345211 1680,581 C 1768.9053239578104,605.9216870654789 1898.258663987946,693.4061963044225 1945,715 C 1991.741336012054,736.5938036955775 1955.870668006027,692.2969018477888 1920,648 C 1920,648 1920,1080 1920,1080 Z" fill="#282a3a" opacity="0.36"/><path d="M 0,1080 C 0,1080 0,864 0,864 C 83.59368473922123,862.5588701789633 167.18736947844246,861.1177403579266 236,873 C 304.81263052155754,884.8822596420734 358.8442068254514,910.0879087472573 430,886 C 501.1557931745486,861.9120912527427 589.4358032197521,788.530624653044 651,800 C 712.5641967802479,811.469375346956 747.4125802955405,907.7895926405665 825,917 C 902.5874197044595,926.2104073594335 1022.9138755980862,848.3110047846892 1104,809 C 1185.0861244019138,769.6889952153108 1226.9319173121148,768.9663882206771 1281,789 C 1335.0680826878852,809.0336117793229 1401.3584551534536,849.8234423326021 1468,852 C 1534.6415448465464,854.1765576673979 1601.6342620740704,817.7398424489148 1691,818 C 1780.3657379259296,818.2601575510852 1892.1044965502654,855.2171878717387 1934,869 C 1975.8955034497346,882.7828121282613 1947.9477517248674,873.3914060641307 1920,864 C 1920,864 1920,1080 1920,1080 Z" fill="#282a3a" opacity="0.48"/></svg>